HIERARCHY
ROOT Hips
{
	OFFSET 0.00000 0.00000 0.00000
	CHANNELS 6 Xposition Yposition Zposition Zrotation Yrotation Xrotation 
	JOINT LHipJoint
	{
		OFFSET 0 0 0
		CHANNELS 3 Zrotation Yrotation Xrotation
		JOINT LeftHip
		{
			OFFSET 1.17584 -1.63585 1.00361
			CHANNELS 3 Zrotation Yrotation Xrotation
			JOINT LeftKnee
			{
				OFFSET 2.23889 -6.15131 0.00000
				CHANNELS 3 Zrotation Yrotation Xrotation
				JOINT LeftAnkle
				{
					OFFSET 2.65161 -7.28525 0.00000
					CHANNELS 3 Zrotation Yrotation Xrotation
					JOINT LeftToe
					{
						OFFSET 0.24898 -0.68407 1.57235
						CHANNELS 3 Zrotation Yrotation Xrotation
						End Site
						{
							OFFSET 0.00000 -0.00000 0.85838
						}
					}
				}
			}
		}
	}
	JOINT RHipJoint
	{
		OFFSET 0 0 0
		CHANNELS 3 Zrotation Yrotation Xrotation
		JOINT RightHip
		{
			OFFSET -1.15592 -1.63585 1.00361
			CHANNELS 3 Zrotation Yrotation Xrotation
			JOINT RightKnee
			{
				OFFSET -2.34071 -6.43104 0.00000
				CHANNELS 3 Zrotation Yrotation Xrotation
				JOINT RightAnkle
				{
					OFFSET -2.59113 -7.11908 0.00000
					CHANNELS 3 Zrotation Yrotation Xrotation
					JOINT RightToe
					{
						OFFSET -0.17867 -0.49089 1.70981
						CHANNELS 3 Zrotation Yrotation Xrotation
						End Site
						{
							OFFSET -0.00000 -0.00000 0.89861
						}
					}
				}
			}
		}
	}
	JOINT lowerback
	{
		OFFSET 0 0 0
		CHANNELS 3 Zrotation Yrotation Xrotation
		JOINT Chest
		{
			OFFSET -0.02255 1.90764 -0.16605
			CHANNELS 3 Zrotation Yrotation Xrotation
			JOINT Chest2
			{
				OFFSET -0.00365 1.92150 -0.04898
				CHANNELS 3 Zrotation Yrotation Xrotation
				JOINT lowerneck
				{
					OFFSET 0 0 0
					CHANNELS 3 Zrotation Yrotation Xrotation
					JOINT Neck
					{
						OFFSET 0.00372 1.59170 0.08694
						CHANNELS 3 Zrotation Yrotation Xrotation
						JOINT Head
						{
							OFFSET 0.12558 1.58643 -0.08078
							CHANNELS 3 Zrotation Yrotation Xrotation
							End Site
							{
								OFFSET 0.04211 1.60835 -0.03803
							}
						}
					}
				}
				JOINT LeftCollar
				{
					OFFSET 0 0 0
					CHANNELS 3 Zrotation Yrotation Xrotation
					JOINT LeftShoulder
					{
						OFFSET 3.69324 0.96316 0.19077
CHANNELS 3 Zrotation Xrotation Yrotation
						JOINT LeftElbow
						{
OFFSET 0 -4.877960 -0.000000
CHANNELS 3 Zrotation Xrotation Yrotation
							JOINT LeftWrist
							{
OFFSET 0 -3.231690 0.000000
CHANNELS 3 Zrotation Xrotation Yrotation
								JOINT lhand
								{
									OFFSET 0 0 0
CHANNELS 3 Zrotation Xrotation Yrotation
									JOINT LFingers
									{
OFFSET 0 -0.731320 0.000000
CHANNELS 3 Zrotation Xrotation Yrotation
										End Site
										{
OFFSET 0 -0.589610 0.000000
										}
									}
								}
								JOINT LThumb
								{
OFFSET 0 0.000000 0.000000
CHANNELS 3 Zrotation Xrotation Yrotation
									End Site
									{
OFFSET 0 -0.598610 0.598610
									}
								}
							}
						}
					}
				}
				JOINT RightCollar
				{
					OFFSET 0 0 0
					CHANNELS 3 Zrotation Yrotation Xrotation
					JOINT RightShoulder
					{
						OFFSET -3.66103 0.75145 0.08281
CHANNELS 3 Zrotation Xrotation Yrotation
						JOINT RightElbow
						{
OFFSET 0 -4.914300 0.000000
CHANNELS 3 Zrotation Xrotation Yrotation
							JOINT RightWrist
							{
OFFSET 0 -3.290930 0.000000
CHANNELS 3 Zrotation Xrotation Yrotation
								JOINT rhand
								{
									OFFSET 0 0 0
CHANNELS 3 Zrotation Xrotation Yrotation
									JOINT RFingers
									{
OFFSET 0 -0.545120 0.000000
CHANNELS 3 Zrotation Xrotation Yrotation
										End Site
										{
OFFSET 0 -0.439490 0.000000
										}
									}
								}
								JOINT RThumb
								{
OFFSET 0 0.000000 0.000000
CHANNELS 3 Zrotation Xrotation Yrotation
									End Site
									{
OFFSET 0 -0.446200 0.446200
									}
								}
							}
						}
					}
				}
			}
		}
	}
}
MOTION
Frames: 6
Frame Time: 0.008333333333333333
17.745000 16.050600 1.244000 106.018000 -84.629300 -101.712000 0.000000 0.000000 0.000000 -16.360500 -7.072000 -20.968100 4.573100 12.886300 38.944200 2.615700 4.849100 -32.556700 2.188800 -9.248700 -26.576500 0.000000 0.000000 0.000000 -0.594100 8.881100 -20.592600 -4.948000 -13.325000 40.597400 -2.245700 -5.221000 -30.543000 -0.176600 -2.707100 7.464400 -8.467600 0.006100 -4.137200 -2.103900 0.581200 2.716000 2.593700 0.001800 5.112800 -4.460800 1.377700 -2.763000 0.696700 1.813300 16.287900 1.041000 0.533400 5.308300 -0.000000 -0.000000 0.000000 11.982700 -6.783400 -27.054900 27.781900 -38.914700 9.986400 51.396000 -21.348900 29.926200 0.000000 0.000000 0.000000 -7.125000 0.000000 0.000000 11.141800 -12.010400 13.444200 -0.000000 -0.000000 0.000000 -4.746600 -0.222300 33.719800 -27.634000 -38.777100 -9.893600 -19.809600 -1.403800 38.391900 0.000000 0.000000 0.000000 7.125000 0.000000 -0.000000 21.602200 68.956500 -12.618200
17.737547 16.055097 1.210949 118.119182 -86.332666 -113.122239 0.000000 0.000000 0.000000 -13.982897 -7.293134 -21.950562 4.728571 13.071236 39.636167 2.657957 4.988982 -32.863141 2.198406 -9.267712 -26.636393 0.000000 0.000000 0.000000 1.802996 10.883326 -20.540621 -4.789590 -13.142655 39.905103 -2.040719 -6.287448 -29.828525 -0.189783 -2.805445 7.737561 -6.215301 0.167849 -4.841985 -1.692907 0.700062 2.347904 1.785804 0.149986 5.117572 -4.751389 1.386179 -2.846759 1.069219 1.799835 16.351794 1.205805 0.533151 5.335774 0.000000 0.000000 0.000000 12.276446 -6.647588 -27.481401 28.180175 -39.281536 10.237594 51.202971 -21.583740 29.798172 0.000000 0.000000 0.000000 -7.125000 0.000000 0.000000 11.080262 -11.753913 13.329179 0.000000 0.000000 0.000000 -4.633399 -0.271307 33.317225 -27.712780 -38.850431 -9.943008 -34.675923 9.133279 32.843792 0.000000 0.000000 0.000000 7.125000 0.000000 0.000000 -3.555720 68.042052 1.893872
17.724025 16.061237 1.167560 142.738503 -87.700172 -137.255673 0.000000 0.000000 0.000000 -11.661910 -7.448125 -22.568022 4.850457 13.213320 40.172470 2.722004 4.875418 -33.171961 2.172644 -9.216687 -26.475664 0.000000 0.000000 0.000000 4.201221 12.778724 -20.031170 -4.671063 -13.003472 39.381485 -1.964512 -8.204403 -30.476816 -0.136087 -2.374768 6.542727 -4.118024 0.387233 -5.740221 -1.290374 0.891480 2.205182 1.060293 0.311536 5.478234 -4.723043 1.324960 -2.672144 1.095552 1.709542 16.008032 1.200924 0.502558 5.201824 0.000000 0.000000 0.000000 12.462924 -6.879148 -27.710826 28.365477 -39.450407 10.355095 51.308153 -21.264180 29.614905 0.000000 0.000000 0.000000 -7.125000 0.000000 0.000000 11.192614 -11.595334 13.445135 0.000000 0.000000 0.000000 -4.447796 -0.527367 31.976854 -27.736678 -38.872718 -9.958071 -42.839110 18.303778 29.845609 0.000000 0.000000 0.000000 7.125000 0.000000 0.000000 -17.113024 67.284754 9.289843
17.715929 16.058316 1.116614 162.457825 -88.118936 -156.762406 0.000000 0.000000 0.000000 -10.482728 -7.581384 -22.832250 4.916999 13.289671 40.462727 2.745440 4.843461 -33.288991 2.177656 -9.226712 -26.507124 0.000000 0.000000 0.000000 5.473252 14.224780 -19.458891 -4.609283 -12.929720 39.106119 -1.921707 -9.785526 -31.235671 -0.087405 -1.906763 5.248004 -3.103911 0.525212 -6.232425 -1.129631 1.012345 2.096543 0.677926 0.405072 5.649488 -4.686901 1.304874 -2.628679 1.123663 1.678796 15.847871 1.200778 0.496714 5.145585 0.000000 0.000000 0.000000 12.595359 -6.987759 -27.857561 28.618498 -39.679495 10.516261 51.319173 -20.947704 29.536121 0.000000 0.000000 0.000000 -7.125000 0.000000 0.000000 11.222818 -11.508247 13.469535 0.000000 0.000000 0.000000 -4.276383 -0.827690 30.620350 -27.531298 -38.681231 -9.829424 -44.182113 24.391119 29.709902 0.000000 0.000000 0.000000 7.125000 0.000000 0.000000 -19.368575 67.549431 10.663298
17.712908 16.052137 1.057623 164.238531 -88.247988 -158.571654 0.000000 0.000000 0.000000 -10.155515 -7.706082 -22.753979 4.924503 13.298309 40.495692 2.731402 4.936242 -33.253093 2.226079 -9.321840 -26.807441 0.000000 0.000000 0.000000 5.914728 15.021477 -18.946160 -4.606270 -12.926191 39.092883 -1.929386 -10.880191 -32.041922 -0.043803 -1.341495 3.689045 -2.880825 0.578748 -6.411139 -1.141904 1.072803 2.066298 0.548930 0.442675 5.721371 -4.574417 1.302607 -2.707043 1.039290 1.688295 15.785466 1.156762 0.505767 5.141149 0.000000 0.000000 0.000000 12.614426 -7.078473 -27.794477 28.847391 -39.884645 10.662734 51.213468 -20.553779 29.625872 0.000000 0.000000 0.000000 -7.125000 0.000000 0.000000 11.139286 -11.556551 13.373014 0.000000 0.000000 0.000000 -4.138959 -1.217357 29.722557 -27.209503 -38.378106 -9.628966 -41.919406 26.891164 30.463951 0.000000 0.000000 0.000000 7.125000 0.000000 0.000000 -15.607173 67.699370 8.603047
17.712926 16.045769 0.998348 163.964546 -88.470182 -158.422544 0.000000 0.000000 0.000000 -9.891620 -7.835708 -22.557928 4.908772 13.280325 40.427037 2.696767 5.096340 -33.132821 2.307480 -9.478981 -27.305476 0.000000 0.000000 0.000000 6.260605 15.060892 -18.698324 -4.629300 -12.953727 39.195441 -1.935230 -11.288351 -32.367970 -0.015759 -0.797404 2.191662 -2.673915 0.573569 -6.431787 -1.142523 1.049728 2.081931 0.430075 0.438480 5.753381 -4.479544 1.319320 -2.801793 0.912981 1.732342 15.695446 1.104316 0.528735 5.130498 0.000000 0.000000 0.000000 12.513445 -7.154115 -27.555454 29.015024 -40.034014 10.770379 50.984309 -20.138854 29.822287 0.000000 0.000000 0.000000 -7.125000 0.000000 0.000000 10.957545 -11.663524 13.163237 0.000000 0.000000 0.000000 -4.074479 -1.637918 29.545800 -26.914130 -38.097135 -9.446069 -40.283681 27.295479 30.414251 0.000000 0.000000 0.000000 7.125000 0.000000 0.000000 -12.949491 67.135914 6.948509
